<svg width="24" height="24" viewBox="0 0 24 24" fill="none" xmlns="http://www.w3.org/2000/svg">
<path d="M20.4685 1.7583H14.5584C14.3746 1.75817 14.1983 1.83078 14.0679 1.96027L2.25258 13.7756C1.99387 14.0356 1.84863 14.3874 1.84863 14.7542C1.84863 15.121 1.99387 15.4728 2.25258 15.7328L7.87893 21.3591C8.13891 21.6179 8.49075 21.7631 8.85753 21.7631C9.2243 21.7631 9.57614 21.6179 9.83612 21.3591L21.6466 9.54863C21.7761 9.41824 21.8488 9.24189 21.8486 9.05813V3.14325C21.8495 2.96153 21.8144 2.78143 21.7455 2.61332C21.6765 2.4452 21.5749 2.29239 21.4467 2.16367C21.3184 2.03495 21.1659 1.93287 20.998 1.8633C20.8302 1.79373 20.6502 1.75805 20.4685 1.7583Z" fill="white" stroke="#212121" stroke-width="3.0102" stroke-linecap="round" stroke-linejoin="round"/>
<path d="M17.7134 4.14282C18.0028 4.08525 18.303 4.11389 18.5757 4.22681C18.8483 4.33975 19.0816 4.53123 19.2456 4.77661C19.4095 5.02196 19.4966 5.31064 19.4966 5.60571C19.4966 6.00146 19.3399 6.38154 19.0601 6.66138C18.7802 6.94121 18.4001 7.0979 18.0044 7.0979C17.7093 7.09787 17.4206 7.01085 17.1753 6.84692C16.9299 6.68296 16.7384 6.44966 16.6255 6.177C16.5126 5.90436 16.4839 5.60413 16.5415 5.3147C16.5991 5.0253 16.7411 4.75968 16.9497 4.55103C17.1584 4.34237 17.424 4.20041 17.7134 4.14282Z" fill="#212121" stroke="#212121" stroke-width="0.0940689"/>
</svg>
